<?xml version="1.0" encoding="UTF-8"?><svg id="Layer_2" xmlns="http://www.w3.org/2000/svg" viewBox="0 0 460.61 637.72"><defs><style>.cls-1{fill:#6e87ce;}</style></defs><g id="Map_Pin"><path class="cls-1" d="m230.3,0C103.13,0,0,101.94,0,227.66c0,216.71,230.3,410.06,230.3,410.06,0,0,230.3-193.35,230.3-410.06C460.61,101.94,357.48,0,230.3,0Zm9.3,133.45c3.3-30.49,23.51-53.63,45.14-51.67,21.63,1.96,36.5,28.27,33.2,58.76-3.3,30.49-23.51,53.63-45.14,51.67s-36.5-28.27-33.2-58.76Zm-63.35-51.78c21.68-1.52,41.32,22.02,43.87,52.58,2.55,30.55-12.95,56.55-34.62,58.07-21.68,1.52-41.32-22.02-43.87-52.58-2.55-30.55,12.95-56.55,34.62-58.07Zm-40.54,168.61c-18.31,10.39-46.18-.44-62.25-24.17-16.08-23.74-14.27-51.4,4.04-61.78,18.31-10.39,46.18.44,62.25,24.17,16.08,23.74,14.27,51.4-4.04,61.78Zm168.26,87.9c-42.2,27.64-151.8,22.14-158.05-16.66-7.24-44.94,29.09-109.29,89.02-111.64,51.75-2.03,111.24,100.66,69.03,128.3Zm24.23-87.09c-18.65-9.86-21.41-37.45-6.15-61.64,15.26-24.18,42.74-35.8,61.4-25.94,18.65,9.86,21.41,37.45,6.15,61.64-15.26,24.18-42.74,35.8-61.4,25.94Z"/></g></svg>