<?xml version="1.0" encoding="UTF-8"?><svg id="Layer_2" xmlns="http://www.w3.org/2000/svg" viewBox="0 0 460.6 637.72"><defs><style>.cls-1{fill:none;}.cls-2{fill:#fff;}.cls-3{fill:#6e87ce;}</style></defs><g id="Layer_2-2"><path class="cls-1" d="m303.78,338.07c-17.78,11.7-47.5,17.49-76.45,17.39,28.99.16,58.82-5.61,76.64-17.27,17.17-11.24,17.51-34.9,8.39-58.88,8.95,23.96,8.5,47.53-8.58,58.77Z"/><path class="cls-1" d="m185.07,191.29c-15.59,1.1-30.12-10.79-38.03-28.96,7.77,18.73,22.56,31.1,38.46,29.99,21.67-1.52,37.17-27.52,34.62-58.07-.36-4.3-1.07-8.45-2.06-12.43.81,3.55,1.39,7.23,1.7,11.03,2.56,30.75-12.98,56.91-34.69,58.44Z"/><path class="cls-1" d="m143.74,195.15c11.01,21.89,7.84,45.12-8.56,54.46-16.6,9.46-41.05,1.43-57.49-17.88,16.4,19.75,41.22,28.07,58.01,18.55,16.62-9.42,19.64-33.08,8.03-55.13Z"/><path class="cls-1" d="m317.78,139.19c-3.3,30.69-23.55,53.97-45.23,51.99-14.86-1.35-26.53-14.22-31.34-32.07,4.58,18.37,16.42,31.73,31.59,33.1,21.63,1.96,41.84-21.18,45.14-51.67.64-5.95.59-11.73-.07-17.21.5,5.08.5,10.4-.09,15.86Z"/><path class="cls-1" d="m389.58,224.33c-15.29,24.34-42.83,36.03-61.52,26.11-8.02-4.26-13.1-11.8-15.08-20.95,1.86,9.44,6.99,17.25,15.22,21.61,18.66,9.86,46.14-1.76,61.4-25.94,6.77-10.73,9.98-22.12,9.85-32.34-.09,10.02-3.31,21.08-9.87,31.52Z"/><path class="cls-3" d="m230.3,0C103.13,0,0,101.94,0,227.66c0,216.71,230.3,410.06,230.3,410.06,0,0,230.3-193.35,230.3-410.06,0-125.72-103.12-227.66-230.3-227.66Zm8.99,132.05c3.3-30.69,23.55-53.97,45.23-51.99,17.82,1.62,31.05,19.81,33.36,43.27.65,5.48.71,11.27.07,17.21-3.3,30.49-23.51,53.63-45.14,51.67-15.17-1.37-27-14.73-31.59-33.1-2.2-8.18-2.97-17.41-1.93-27.06Zm-63.48-52.1c19.04-1.34,36.51,16.7,42.25,41.88.99,3.97,1.7,8.13,2.06,12.43,2.55,30.55-12.95,56.55-34.62,58.07-15.9,1.11-30.69-11.26-38.46-29.99-3.11-7.15-5.2-15.27-5.93-23.95-2.56-30.75,12.98-56.91,34.69-58.44Zm-40.1,170.34c-16.79,9.53-41.62,1.2-58.01-18.55-1.72-2.03-3.36-4.18-4.89-6.44-16.11-23.89-14.3-51.72,4.05-62.17,18.34-10.45,46.27.44,62.38,24.33,1.71,2.53,3.2,5.11,4.51,7.71,11.61,22.04,8.59,45.7-8.03,55.13Zm168.26,87.9c-17.82,11.67-47.64,17.43-76.64,17.27-39.89-.15-78.3-11.52-81.92-34.15-7.25-45.22,29.15-109.98,89.2-112.34,30.9-1.22,64.55,34.99,77.75,70.34,9.12,23.98,8.78,47.64-8.39,58.88Zm85.63-113.03c-15.26,24.18-42.74,35.8-61.4,25.94-8.23-4.35-13.36-12.16-15.22-21.61-2.64-12.17.19-27.18,8.92-41.08,15.29-24.34,42.83-36.03,61.52-26.11,10.68,5.67,16.14,17.16,16.03,30.51.14,10.22-3.08,21.62-9.85,32.34Z"/><path class="cls-2" d="m312.36,279.3c-13.2-35.35-46.85-71.55-77.75-70.34-60.05,2.36-96.45,67.12-89.2,112.34,3.63,22.63,42.04,34,81.92,34.15,28.94.11,58.66-5.69,76.45-17.39,17.09-11.24,17.53-34.81,8.58-58.77Z"/><path class="cls-2" d="m147.04,162.33c7.91,18.16,22.45,30.05,38.03,28.96,21.72-1.53,37.25-27.69,34.69-58.44-.32-3.8-.89-7.48-1.7-11.03-5.75-25.18-23.22-43.22-42.25-41.88-21.72,1.53-37.25,27.69-34.69,58.44.72,8.68,2.81,16.8,5.93,23.95Z"/><path class="cls-2" d="m272.55,191.18c21.68,1.97,41.93-21.31,45.23-51.99.59-5.46.59-10.78.09-15.86-2.31-23.47-15.54-41.65-33.36-43.27-21.68-1.97-41.93,21.31-45.23,51.99-1.04,9.65-.28,18.88,1.93,27.06,4.81,17.85,16.48,30.72,31.34,32.07Z"/><path class="cls-2" d="m328.06,250.43c18.69,9.92,46.23-1.77,61.52-26.11,6.55-10.44,9.78-21.5,9.87-31.52.11-13.35-5.35-24.84-16.03-30.51-18.69-9.92-46.23,1.77-61.52,26.11-8.73,13.9-11.56,28.9-8.92,41.08,1.99,9.15,7.06,16.69,15.08,20.95Z"/><path class="cls-2" d="m135.18,249.62c16.4-9.34,19.57-32.58,8.56-54.46-1.31-2.6-2.8-5.18-4.51-7.71-16.11-23.89-44.04-34.78-62.38-24.33-18.34,10.45-20.15,38.29-4.05,62.17,1.53,2.27,3.17,4.42,4.89,6.44,16.44,19.32,40.89,27.34,57.49,17.88Z"/></g></svg>